<svg xmlns="http://www.w3.org/2000/svg" viewBox="0 0 600 145.93"><defs><style>.cls-1{fill:#25c797;}</style></defs><g id="레이어_2" data-name="레이어 2"><g id="Logo_04:_600_x_600_px" data-name="Logo 04: 600 x 600 px"><g id="Text"><path class="cls-1" d="M145.34,118.31c.31,1.31-.61,2.47-2.11,3.52Q126.57,133.39,110,145.08a3.49,3.49,0,0,1-4.09.35Q88.8,136.66,71.62,128a4.08,4.08,0,0,1-2.48-3.54q-2.23-19-4.65-38a3.77,3.77,0,0,1,1.83-4Q83,70.86,99.68,59.13a3.77,3.77,0,0,1,4.14-.43q18,8.1,36.15,16.1a3.77,3.77,0,0,1,2.53,3.61c.77,11.83,1.63,23.66,2.47,35.49C145.06,115.18,145.19,116.45,145.34,118.31ZM70.27,84.42c.56.32.86.54,1.19.68,10.68,4.77,21.36,9.51,32,14.31a2.21,2.21,0,0,0,2.46-.4l28.87-20.23c.46-.32,1.21-.52,1.18-1.18s-.84-.71-1.34-.94c-10.33-4.62-20.68-9.2-31-13.86a2.66,2.66,0,0,0-3,.33c-5.9,4.19-11.83,8.31-17.76,12.46Zm35.29,54.75q-1.23-17.26-2.43-34.54a1.82,1.82,0,0,0-1.24-1.78q-15.83-7-31.63-14.08c-1.51-.67-1.65-.55-1.46,1.06q2,16.55,4,33.1a2.37,2.37,0,0,0,1.39,2.1q15,7.54,29.9,15.14C105.53,140.91,105.7,140.78,105.56,139.17Z"/><path class="cls-1" d="M42.6,76.27c-6.81,0-13.63,0-20.44,0a3.36,3.36,0,0,1-3.38-2.07Q9.71,57.11.53,40a3.61,3.61,0,0,1,0-3.75Q9.68,19.2,18.76,2.07A3.47,3.47,0,0,1,22.18,0Q42.85,0,63.54,0a3.34,3.34,0,0,1,3.14,1.77Q77,19.08,87.46,36.38a3,3,0,0,1,0,3.43q-10.53,17.5-21,35a2.92,2.92,0,0,1-2.8,1.45C56.66,76.25,49.63,76.27,42.6,76.27ZM44.11,3.81c-5.9,0-11.81,0-17.71,0-.51,0-1.19-.25-1.5.21s.24,1,.5,1.41C31.27,15.25,37.17,25,43,34.85a2.48,2.48,0,0,0,2.4,1.41c11.87,0,23.73,0,35.59,0,1.67,0,1.78-.17.94-1.57C76,24.77,70.06,14.89,64.16,5A2.16,2.16,0,0,0,62,3.79C56,3.83,50.07,3.81,44.11,3.81ZM21.17,6.37c-.63.15-.73.75-1,1.19C15,17.3,9.81,27.06,4.57,36.8a2.5,2.5,0,0,0,0,2.66c5.21,9.69,10.37,19.4,15.56,29.1.26.49.34,1.28,1,1.29s.82-.76,1.11-1.23c5.56-9.25,11-18.54,16.72-27.72a4.47,4.47,0,0,0,0-5.51C33.29,26.22,27.82,16.92,22.25,7.68,22,7.2,21.81,6.57,21.17,6.37Z"/><path class="cls-1" d="M236.59,145.93c-25.67,0-41.4-15-46.46-28.85-.19-.74.19-2.24,1.12-2.43l10.12-3.56a1.8,1.8,0,0,1,1.87,1.31c4.12,15.18,18.36,22.86,33.91,22.86,17.42,0,33.72-9.56,33.72-28.85,0-19.11-20.61-25.67-34.85-30-21.73-6.55-40.83-15.92-40.83-40.08C195.19,11.62,214.67,0,236.59,0c18.73,0,35,7.31,43.27,23.42.19.75-.19,2.06-1.13,2.25l-8.8,3.74c-.94.19-1.5-.56-2.06-1.31C262.44,15.93,251,10.68,238.08,10.68c-15.17,0-30.34,6-30.34,23.79,0,20.61,16.11,26.6,31.66,31.1,19.66,6,44,13.86,44,40.09S264.5,145.93,236.59,145.93Z"/><path class="cls-1" d="M349.36,145.18a48.71,48.71,0,1,1,48.7-48.7A48.61,48.61,0,0,1,349.36,145.18Zm0-86.73c-20.23,0-36.16,17.61-36.16,38,0,20.6,15.93,37.84,36.16,37.84,19.85,0,36-17.24,36-37.84C385.32,76.06,369.21,58.45,349.36,58.45Z"/><path class="cls-1" d="M433.09,143.31h-9a2,2,0,0,1-1.87-1.69V4.5a2.4,2.4,0,0,1,1.87-1.87h9A2.17,2.17,0,0,1,435,4.5V141.62A1.84,1.84,0,0,1,433.09,143.31Z"/><path class="cls-1" d="M471.87,24.36a8.88,8.88,0,0,1-9-9,9,9,0,1,1,18,0A8.88,8.88,0,0,1,471.87,24.36Zm4.49,119h-9a2,2,0,0,1-1.87-1.69V51.52a2.21,2.21,0,0,1,1.87-2.06h9a2.06,2.06,0,0,1,1.88,2.06v90.1A1.85,1.85,0,0,1,476.36,143.31Z"/><path class="cls-1" d="M551.29,145.18a48.71,48.71,0,1,1,36-81.48V4.5A2.2,2.2,0,0,1,589,2.63h9.18A2.18,2.18,0,0,1,600,4.5V139.75a2,2,0,0,1-1.87,1.87H589a2,2,0,0,1-1.69-1.87V129.07A49,49,0,0,1,551.29,145.18Zm0-86.73c-20.23,0-36.15,17.61-36.15,38,0,20.6,15.92,37.84,36.15,37.84,19.86,0,36-17.24,36-37.84C587.26,76.06,571.15,58.45,551.29,58.45Z"/></g></g></g></svg>